<?xml version="1.0" encoding="utf-8"?>
<!-- Generator: Adobe Illustrator 16.0.0, SVG Export Plug-In . SVG Version: 6.00 Build 0)  -->
<!DOCTYPE svg PUBLIC "-//W3C//DTD SVG 1.1//EN" "http://www.w3.org/Graphics/SVG/1.1/DTD/svg11.dtd">
<svg version="1.1" xmlns="http://www.w3.org/2000/svg" xmlns:xlink="http://www.w3.org/1999/xlink" x="0px" y="0px" width="612px"
	 height="792px" viewBox="0 0 612 792" enable-background="new 0 0 612 792" xml:space="preserve">
<g id="Layer_1" display="none">
	<g display="inline">
		
			<linearGradient id="SVGID_1_" gradientUnits="userSpaceOnUse" x1="145.4126" y1="801.6768" x2="146.0168" y2="801.0144" gradientTransform="matrix(611.8843 0 0 -558.2068 -88798.4453 447716.9375)">
			<stop  offset="0" style="stop-color:#FF5FA2"/>
			<stop  offset="1" style="stop-color:#FCC89B"/>
		</linearGradient>
		<path fill="url(#SVGID_1_)" d="M552.789,367.389c4.284-4.896,22.185,10.251,15.453,19.278
			c-10.863,14.535-27.999-10.404-33.048-17.748c-2.143-3.213-4.896-6.273-7.956-8.721c-5.661-5.049-12.853-8.262-20.35-9.18
			c-17.289-1.836-48.807,15.453-49.419,34.731c-0.459,12.24,11.781,19.89,17.748,29.224c9.945,15.452,15.759,35.802,17.442,54.009
			c3.213,35.648-4.284,71.298-21.879,102.51c-16.83,29.07-59.67,68.238-91.035,32.589c14.688-13.923,27.081-30.294,36.414-48.348
			c8.721-16.219,14.688-33.66,17.748-51.715c2.601-14.841,1.529-30.294-3.213-44.676c-4.131-12.239-13.312-22.185-25.398-26.928
			c-22.338-9.639-48.348-6.273-67.473,8.874c-9.64,7.803-17.442,17.595-22.797,28.917c-6.12,12.852-9.64,26.775-10.404,41.157
			c-0.765,15.453,0.459,31.059,3.825,46.206c3.978,18.054,11.321,35.189,21.573,50.489c-5.05,4.896-10.863,8.874-17.137,11.781
			c-5.661,2.602-12.087,3.213-18.054,1.684c-11.475-2.602-21.726-9.181-28.764-18.514l-0.306-0.765l-0.765-0.612
			c-5.049-7.497-8.415-15.912-10.098-24.786c-2.754-17.748-1.989-42.228,2.907-69.003c3.978-19.277,9.18-38.402,15.453-57.068
			c0.918-2.448,1.836-4.743,2.754-7.191c21.267-52.785,47.277-111.231,61.353-142.902c24.479,1.224,49.112,0.765,73.593-1.683
			c142.902-16.065,125.154-179.775,125.154-179.775c-69.003,87.975-212.977,72.828-310.284,96.237
			C137.853,236.88,31.059,316.746,10.863,415.125c-23.409,113.985,48.042,120.87,48.042,120.87l69.003-57.222
			c-87.975-10.404-87.975-116.127-22.032-161.416c30.141-20.655,74.97-23.715,124.695-22.185
			c-13.158,44.829-47.43,164.935-51.561,226.899c-5.049,74.664,12.087,127.602,90.729,140.913c6.12,0.611,12.24,0.918,18.36,0.765
			h0.153c19.737-1.683,40.086-12.087,61.2-31.212c11.016,13.77,22.644,22.797,35.037,26.928
			c56.916,19.432,103.428-14.229,132.191-59.822c10.099-16.371,18.514-33.508,25.398-51.408c1.683-4.284,3.366-8.568,4.743-12.853
			c10.098-29.069,17.595-64.719,12.852-100.062c3.366-0.459,6.579-1.377,9.639-2.754c20.196-8.109,33.354-24.175,35.037-46.053
			C606.492,358.974,575.28,342.144,552.789,367.389z M368.271,577.611c0-0.307-0.153-0.766-0.46-0.918
			c-2.601-5.661-4.437-11.476-5.508-17.596c-2.907-15.146-6.426-42.074,2.602-55.538l0,0c7.19-10.558,20.961-12.088,27.54,0
			c5.661,10.251-2.602,27.233-6.427,37.179C380.817,553.438,375.003,565.677,368.271,577.611z"/>
	</g>
</g>
<g id="Layer_2">
	<g>
		<path fill="#FFFFFF" d="M552.789,367.389c4.284-4.896,22.185,10.251,15.453,19.278c-10.863,14.535-27.999-10.404-33.048-17.748
			c-2.143-3.213-4.896-6.273-7.956-8.721c-5.661-5.049-12.853-8.262-20.35-9.18c-17.289-1.836-48.807,15.453-49.419,34.731
			c-0.459,12.24,11.781,19.89,17.748,29.224c9.945,15.452,15.759,35.802,17.442,54.009c3.213,35.648-4.284,71.298-21.879,102.51
			c-16.83,29.07-59.67,68.238-91.035,32.589c14.688-13.923,27.081-30.294,36.414-48.348c8.721-16.219,14.688-33.66,17.748-51.715
			c2.601-14.841,1.529-30.294-3.213-44.676c-4.131-12.239-13.312-22.185-25.398-26.928c-22.338-9.639-48.348-6.273-67.473,8.874
			c-9.64,7.803-17.442,17.595-22.797,28.917c-6.12,12.852-9.64,26.775-10.404,41.157c-0.765,15.453,0.459,31.059,3.825,46.206
			c3.978,18.054,11.321,35.189,21.573,50.489c-5.05,4.896-10.863,8.874-17.137,11.781c-5.661,2.602-12.087,3.213-18.054,1.684
			c-11.475-2.602-21.726-9.181-28.764-18.514l-0.306-0.765l-0.765-0.612c-5.049-7.497-8.415-15.912-10.098-24.786
			c-2.754-17.748-1.989-42.228,2.907-69.003c3.978-19.277,9.18-38.402,15.453-57.068c0.918-2.448,1.836-4.743,2.754-7.191
			c21.267-52.785,47.277-111.231,61.353-142.902c24.479,1.224,49.112,0.765,73.593-1.683
			c142.902-16.065,125.154-179.775,125.154-179.775c-69.003,87.975-212.977,72.828-310.284,96.237
			C137.853,236.88,31.059,316.746,10.863,415.125c-23.409,113.985,48.042,120.87,48.042,120.87l69.003-57.222
			c-87.975-10.404-87.975-116.127-22.032-161.416c30.141-20.655,74.97-23.715,124.695-22.185
			c-13.158,44.829-47.43,164.935-51.561,226.899c-5.049,74.664,12.087,127.602,90.729,140.913c6.12,0.611,12.24,0.918,18.36,0.765
			h0.153c19.737-1.683,40.086-12.087,61.2-31.212c11.016,13.77,22.644,22.797,35.037,26.928
			c56.916,19.432,103.428-14.229,132.191-59.822c10.099-16.371,18.514-33.508,25.398-51.408c1.683-4.284,3.366-8.568,4.743-12.853
			c10.098-29.069,17.595-64.719,12.852-100.062c3.366-0.459,6.579-1.377,9.639-2.754c20.196-8.109,33.354-24.175,35.037-46.053
			C606.492,358.974,575.28,342.144,552.789,367.389z M368.271,577.611c0-0.307-0.153-0.766-0.46-0.918
			c-2.601-5.661-4.437-11.476-5.508-17.596c-2.907-15.146-6.426-42.074,2.602-55.538l0,0c7.19-10.558,20.961-12.088,27.54,0
			c5.661,10.251-2.602,27.233-6.427,37.179C380.817,553.438,375.003,565.677,368.271,577.611z"/>
	</g>
</g>
</svg>
